<?xml version="1.0" encoding="utf-8"?>
<!-- Generator: Adobe Illustrator 28.0.0, SVG Export Plug-In . SVG Version: 6.00 Build 0)  -->
<svg version="1.1" xmlns="http://www.w3.org/2000/svg" xmlns:xlink="http://www.w3.org/1999/xlink" x="0px" y="0px"
	 viewBox="0 0 576 512" style="enable-background:new 0 0 576 512;" xml:space="preserve">
<style type="text/css">
	.st0{fill:#F3C63F;}
	.st1{fill:#DEE1E6;}
</style>
<g id="Слой_1">
	<path class="st0" d="M288,0c-11.4,0-22.8,5.9-28.7,17.8L194,150.2L47.9,171.4c-26.2,3.8-36.7,36.1-17.7,54.6l105.7,103l-25,145.5
		c-4.5,26.1,23,46,46.4,33.7L288,439.6V0z"/>
</g>
<g id="Слой_2">
	<path class="st1" d="M288,439.6l130.7,68.6c23.4,12.3,50.9-7.6,46.4-33.7l-25-145.5l105.7-103c19-18.5,8.5-50.8-17.7-54.6
		L382,150.2L316.7,17.8C310.8,5.9,299.4,0,288,0V439.6z"/>
</g>
</svg>
